<mxfile host="app.diagrams.net" modified="2023-10-17T03:20:44.003Z" agent="Mozilla/5.0 (Windows NT 10.0; Win64; x64) AppleWebKit/537.36 (KHTML, like Gecko) Chrome/117.0.0.0 Safari/537.36" etag="3hNlOY0wEhNcFjOGSzEm" version="21.8.2" type="github">
  <diagram name="第 1 页" id="0QldNMjn3WrsliRjC4FI">
    <mxGraphModel dx="1286" dy="609" grid="1" gridSize="10" guides="1" tooltips="1" connect="1" arrows="1" fold="1" page="1" pageScale="1" pageWidth="827" pageHeight="1169" math="0" shadow="0">
      <root>
        <mxCell id="0" />
        <mxCell id="1" parent="0" />
        <mxCell id="-oLg1KLhWN1JwF1aX5Hv-1" value="" style="rounded=0;whiteSpace=wrap;html=1;" vertex="1" parent="1">
          <mxGeometry x="110" y="40" width="180" height="630" as="geometry" />
        </mxCell>
        <mxCell id="-oLg1KLhWN1JwF1aX5Hv-3" value="数字人（直接选择）" style="rounded=0;whiteSpace=wrap;html=1;" vertex="1" parent="1">
          <mxGeometry x="140" y="110" width="120" height="60" as="geometry" />
        </mxCell>
        <mxCell id="-oLg1KLhWN1JwF1aX5Hv-4" value="脚本（音量、音色）" style="rounded=0;whiteSpace=wrap;html=1;" vertex="1" parent="1">
          <mxGeometry x="140" y="240" width="120" height="60" as="geometry" />
        </mxCell>
        <mxCell id="-oLg1KLhWN1JwF1aX5Hv-9" value="&lt;b&gt;&lt;font style=&quot;font-size: 14px;&quot;&gt;前端&lt;/font&gt;&lt;/b&gt;" style="rounded=0;whiteSpace=wrap;html=1;" vertex="1" parent="1">
          <mxGeometry x="110" y="40" width="180" height="40" as="geometry" />
        </mxCell>
        <mxCell id="-oLg1KLhWN1JwF1aX5Hv-11" value="" style="group" vertex="1" connectable="0" parent="1">
          <mxGeometry x="400" y="40" width="420" height="630" as="geometry" />
        </mxCell>
        <mxCell id="-oLg1KLhWN1JwF1aX5Hv-5" value="" style="rounded=0;whiteSpace=wrap;html=1;" vertex="1" parent="-oLg1KLhWN1JwF1aX5Hv-11">
          <mxGeometry width="420" height="630" as="geometry" />
        </mxCell>
        <mxCell id="-oLg1KLhWN1JwF1aX5Hv-10" value="&lt;b&gt;&lt;font style=&quot;font-size: 14px;&quot;&gt;后端&lt;/font&gt;&lt;/b&gt;" style="rounded=0;whiteSpace=wrap;html=1;" vertex="1" parent="-oLg1KLhWN1JwF1aX5Hv-11">
          <mxGeometry width="420" height="40" as="geometry" />
        </mxCell>
        <mxCell id="-oLg1KLhWN1JwF1aX5Hv-12" value="文本合成语音" style="rounded=0;whiteSpace=wrap;html=1;" vertex="1" parent="-oLg1KLhWN1JwF1aX5Hv-11">
          <mxGeometry x="40" y="200" width="120" height="60" as="geometry" />
        </mxCell>
        <mxCell id="-oLg1KLhWN1JwF1aX5Hv-14" value="" style="edgeStyle=orthogonalEdgeStyle;rounded=0;orthogonalLoop=1;jettySize=auto;html=1;entryX=0;entryY=0.5;entryDx=0;entryDy=0;" edge="1" parent="1" source="-oLg1KLhWN1JwF1aX5Hv-4" target="-oLg1KLhWN1JwF1aX5Hv-12">
          <mxGeometry relative="1" as="geometry">
            <mxPoint x="360" y="270" as="targetPoint" />
          </mxGeometry>
        </mxCell>
      </root>
    </mxGraphModel>
  </diagram>
</mxfile>
